<?xml version="1.0" encoding="utf-8"?>
<svg version="1.1" xmlns="http://www.w3.org/2000/svg" viewBox="0 80 278.1 230" xml:space="preserve">
<g>
	<g>
		<g>
			<path fill="#58595B" d="M225.8,196.2c-1.3,2.1-3.1,3.8-4.8,3.8c-2.7,0-0.5-7.7-0.5-10.6c0-5.7-8.7-5.2-12.7-0.2 c0-0.8,0.2-2,0.2-2.6c0-1.9-5.5-2.2-5.5-0.6c0,0.6-0.1,2.1-0.1,2.1c-0.2,3.1-3.6,11.6-7.9,11.6c-2.6,0-0.2-9.1-0.1-11.3 c0.1-1.8-2.8-3.2-6.1-3.2c-7.2,0-11.3,5.6-11.9,10.7c-1.5,2.4-3.5,4-5.2,4c-1.5,0-2.6-1.3-2.8-4.6c-0.2-3.7,0.6-9.2,1.1-14.9 c2.9-0.2,6-0.3,9.3,0c2.3,0.2,3.9-1.6,4-3c0.2-1.7-1.5-1.8-8.8-1.8c-1.5,0-2.9,0-4.2,0.1c0.1-1.4,0-2.8,0-4.2 c-0.1-1.9-5.8-0.7-5.7,1c0.1,1.1,0,2.4,0,3.9c-1.2,0.2-2.5,0.5-3.9,0.9c-2.6,0.7-3.6,5.9-1.2,5.2c1.5-0.5,3.1-0.9,4.9-1.2 c-0.1,2.2-0.5,6.2-0.5,6.2c-0.4,3-1.6,12.4-5.4,12.4c-2.7,0-3.1-2.8-1.9-13.5c0.2-1.8-5.5-1.1-5.7,0.8c-0.1,0.5-0.1,1-0.2,1.4 c-0.8,5.5-2.1,11.3-5.2,11.3c-2.7,0-2.5-2.8-1.3-13.5c0.2-1.8-5.4-1.1-5.7,0.8c-0.2,1.5-0.4,2.9-0.5,4.2 c-0.9,3.4-3.9,8.6-6.9,8.6c-2.7,0-0.5-7.7-0.5-10.6c0-5.7-8.2-5.2-12.2-0.2c0-0.8,0.2-2,0.2-2.6c0-1.9-5.5-2.2-5.5-0.6 c0,0.6,0,1.3,0,2.1l0,0c-0.2,3.1-3.6,11.6-7.9,11.6c-2.6,0-0.2-9.1-0.1-11.3c0.1-1.8-2.8-3.2-6.2-3.2c-13.4,0-16,19.3-5.6,19.4 c1.9,0,4-0.7,5.9-2c0.7,1.2,1.9,2,3.8,2c3.9,0,6.8-2.2,9.3-6.2c-0.2,2.3-0.4,4.2-0.5,4.8c-0.2,2.3,5.5,1.6,5.7-0.5 c0.9-9.4,2.9-12.2,5.6-12.2c4,0-3.1,14.1,5.4,14.1c4.5,0,7.7-2.9,9.4-5.7c0.7,4.1,2.7,5.7,6,5.7c2.6,0,5.1-1.5,6.8-4.7 c1,3.2,3,4.7,5.3,4.7c2.7,0,5.6-1.8,7.5-4.9c0.9,3.3,3.1,4.9,5.9,4.9c3.7,0,5.9-1.9,7.7-4c0.9,2.4,2.8,4.1,5.9,4.1 c1.9,0,4-0.7,5.9-2c0.7,1.2,1.9,2,3.8,2c3.9,0,6.8-2.2,9.3-6.2c-0.2,2.3-0.4,4.2-0.5,4.8c-0.2,2.3,5.6,1.6,5.8-0.5 c0.9-9.4,3.4-12.2,6.1-12.2c4,0-3.2,14.1,5.4,14.1c3.4,0,6-1.6,7.8-3.6C228.3,198.9,227.4,193.6,225.8,196.2z M94.7,200.5 c-5.1,0-3.1-10.9,3-10.9c0.3,0,0.7,0,1,0.1c-0.6,3.6-1.1,7-0.9,9.7C96.8,200.1,95.7,200.5,94.7,200.5z M184.6,200.5 c-5.1,0-3.1-10.9,3-10.9c0.3,0,0.7,0,1,0.1c-0.6,3.6-1.1,7-0.9,9.7C186.7,200.1,185.6,200.5,184.6,200.5z"/>
			<path fill="#58595B" d="M84.3,169.7c0.2-1.1-5.8-1.2-6.5,0.8c-3.5,9.6-6.9,18.4-8.9,18.4c-1.5,0-3-9-3.2-17.4 c0-1.4-6.3-0.1-6.5,2.6c-0.6,12.1-4.4,28.3-8.1,32.9c-1.2,1.5,5,3.8,6.8-0.2c2.7-5.8,3.5-11.9,4.5-21.7c1,5.7,3.4,10.6,6.1,10.6 c3.7,0,6.1-5.1,8.4-10.7c-0.5,10.4,0.6,22,2.3,28.2c1,3.8,7.6,3.2,7.1,1.4C82.4,202.1,82.2,184.3,84.3,169.7z"/>
			<path fill="#764493" d="M103.1,219c-0.2-0.7-0.9-1.2-1.6-1.2c-0.2,0-0.3,0-0.4,0.1c-18.5,4.8-39.8,17.6-52,31.2 c-0.9,1,1.6,3.2,2.5,2.2c11.7-13.1,32.4-25.5,50.3-30.2C102.8,220.8,103.4,219.9,103.1,219z"/>
			<path fill="#58595B" d="M229.9,184.4c-3.4-11.2-11.5-19.7-24.1-25.3c-11.2-5-26.2-7.6-43.3-7.6c-4.9,0-10,0.2-15.2,0.7 c-19.7,1.7-39.5,6.4-53,12.6c-0.5,0.2-1,0.8-1.1,1.4c-0.1,0.8-0.2,1.8-0.2,2.3c0,0.2,0.3,0.3,0.5,0.2 c16.9-8,45.6-13.9,69.3-13.9c16.5,0,30.9,2.5,41.6,7.3c11.8,5.2,19.3,13,22.3,23.2c0.1,0.3,0.5,1.8,0.7,2.5 C227.7,188.6,230.5,187.1,229.9,184.4z"/>
			<path fill="#58595B" d="M50.5,171.7c-5.4-0.5-9.6-2.2-12.9-5.3c-0.3-0.3-0.7-0.4-1.1-0.4c-0.5,0-0.9,0.2-1.2,0.5 c-0.6,0.7-0.6,1.7,0.1,2.4c3.8,3.6,12.3,6.2,15.1,6.2c0.9,0,1.6-0.7,1.7-1.5C52.1,172.6,51.5,171.8,50.5,171.7z"/>
			<path fill="#F0B257" d="M242,157.8c-22.9-13.6-47.7-21.2-73.7-22.6c-2.3-0.1-8.2-0.2-8.9-0.2c-2.4,0-4.7,0-7.1,0.1 c-25.9,1.1-52.8,8.1-80.1,20.9c-7,3.3-14.4,6.5-20.8,6.5c-4.5,0-9.7-2.3-11.9-6c-0.9-0.4-2,2.5-1.3,3.5 c3.6,3.9,7.8,5.8,13.1,5.8c7.1,0,15.2-3.5,22.3-6.8c29.2-13.7,58.1-20.6,85.7-20.6c29.3,0,57,7.8,82.3,23.1 c0.2,0.1,0.4,0,0.5-0.4c0.2-0.6,0.3-1.9,0.3-2.7C242.5,158.1,242.1,157.9,242,157.8z"/>
			<path fill="#C3D552" d="M192,146c-8.8-1.7-19.7-2.8-29.8-2.8c-26.8,0-54.7,6-76.5,16.5c-0.3,0.1-0.6,0.4-0.7,0.8 c0,0.7,0.1,1.9,0.2,2.6c0.1,0.3,0.5,0.3,0.6,0.2c21.4-10.3,49.9-16.8,76.2-16.8c10.1,0,19.1,0.9,27.9,2.5c0.7,0.1,2.7-1,2.6-2.5 C192.7,146.5,192.6,146.1,192,146z"/>
			<path fill="#D92F8A" d="M247.1,174.6c-10.6-11.7-26.3-20.8-45.4-26.2c-1.4-0.4-5.4,1.9-3.1,2.7c0.6,0.2,1.8,0.4,2.1,0.5 c18.5,5.2,33.7,13.9,43.8,25.2c0.3,0.3,0.9,1.1,1.2,1.4C246.9,179.4,247.6,175.1,247.1,174.6z"/>
			<path fill="#C3D552" d="M162.6,216.2c-17.2,1.3-36.1,2.7-55.3,8.1c-23.1,6.5-40.8,17.1-52.5,31.8c-0.2,0.2,0.6,1.9,2.9,1.6 c26.3-32.5,75.8-36.3,103.7-38.1c0.5,0,2.1-0.5,1.5-3C163,216.3,162.8,216.2,162.6,216.2z"/>
			<path fill="#53A8DC" d="M212.3,210.8c-6.8,2.2-19.7,4.2-35.1,5.4c-0.4,0-0.8,0.2-1.1,0.6c-0.2,0.3-0.7,1.1-0.8,2.1 c0,0.3-0.1,0.7,0.4,0.6c15.5-1.2,31.9-3.3,42.3-7c1-0.3-0.4-1.3-2.5-1.8C214.6,210.5,213.5,210.4,212.3,210.8z"/>
			<path fill="#F0B257" d="M226.3,165.9c-0.3-0.2-1.5-1.1-2-1.2c-0.8-0.3-1.1,3.1-0.1,3.9c8.9,7,12.9,16.6,11,26.4 c-2.2,11-11.4,19.7-24.7,23.3c-13.8,3.8-29.2,4.9-45.4,6.1c-18.4,1.4-37.3,2.8-55.4,8.2c-20.6,6.2-37,16.9-50,32.8 c-1.1,1.4,1.4,3.5,2.6,2.1c28.3-34.3,66.3-37.1,103.1-39.8c16.4-1.2,31.8-2.4,46-6.2c14.5-4,24.6-13.6,27-25.8 C240.7,184.7,236.1,173.6,226.3,165.9z"/>
			<path fill="#F0B257" d="M243.8,207.9c-9.4,21.1-35.4,26-62.8,31.2c-17.1,3.3-34.7,6.6-49.3,14.1c-16.4,8.4-26.5,20.9-30.9,38.2 c-0.1,0.3,1.1,2.4,3,1.8c9.1-37.6,44-44.3,77.8-50.8c29.2-5.5,56.8-10.8,66.1-35.4c0.1-0.2,0.1-0.3-0.2-0.4 C246.2,205.9,244.4,206.6,243.8,207.9z"/>
			<path fill="#DD4F41" d="M243.6,180.5c-0.3-0.6-0.7-1.5-1.1-2.1c-0.5-0.6-2.5,2.1-1.9,3.4c3.2,7.5,2.4,16.5-2,24.3 c-5,8.6-16.5,19.5-43.7,22.8c-8.5,1-17.2,1.8-25.6,2.5c-39.5,3.4-76.9,6.6-101.5,37.5c0.3,2.2,2.4,2.3,2.9,1.7 c23.8-29.5,60.3-32.6,98.9-35.9c8.4-0.7,17.1-1.5,25.7-2.5c28.5-3.4,40.9-15.2,46.2-24.4C246.3,199.1,247.2,188.9,243.6,180.5z"/>
			<path fill="#58595B" d="M66.3,226.7c-0.3-0.5-0.8-0.8-1.4-0.8c-0.3,0-0.6,0.1-0.8,0.2c-6.2,3.6-12.8,8.8-19.6,15.5 c-0.4,0.4,0.4,2.2,1.3,2.8c0.4,0.3,1-0.3,1.1-0.4c6.6-6.5,12.9-11.6,18.9-15C66.5,228.5,66.8,227.5,66.3,226.7z"/>
			<path fill="#DD4F41" d="M69,215.6c-0.3-0.5-0.8-0.9-1.5-0.9c-0.3,0-0.5,0.1-0.8,0.2c-9.1,4.9-17.3,11-25.9,19 c-0.4,0.4-0.5,0.8-0.3,1.3c0.1,0.3,0.5,1.2,1.1,1.8c0.3,0.3,0.5,0.4,0.7,0.1c8.4-7.9,17.2-14.5,26-19.3c0.4-0.2,0.7-0.6,0.8-1 C69.2,216.4,69.2,216,69,215.6z"/>
			<path fill="#53A8DC" d="M51.7,215.5c-0.3-0.5-0.8-0.7-1.4-0.7c-0.3,0-0.7,0.1-0.9,0.3c-3.1,2.1-8.8,6.4-12,9.7 c-0.6,0.6,0.3,2.7,0.8,3.2c0.1,0.1,0.4,0.1,0.5,0c2.4-2.5,9.8-8.2,12.6-10.1c0.4-0.2,0.6-0.6,0.7-1.1 C52.1,216.3,52,215.8,51.7,215.5z"/>
			<path fill="#D92F8A" d="M196.3,242.4c-2.1,0.4-7.1,1.3-7.1,1.3c-12,2.2-28.4,5.1-43.3,12.5c-17.8,8.8-29.4,22.5-34.3,39.8 c-0.1,0.4,3.1,1.2,3.3,0.5c10.8-38,50.9-45.2,75-49.6c2.6-0.5,5-0.9,7.1-1.3C197.8,245.5,197.7,242.8,196.3,242.4z"/>
			<path fill="#53A8DC" d="M169.6,255.2c-25.7,6.8-41.9,21.4-46.8,43.1c-0.2,0.9,3,1.9,3.2,0.7c4.6-20.4,19.3-34,43.8-40.5 c0.2,0,1.3-0.4,2.1-0.6C172.2,256,170.7,255,169.6,255.2z"/>
			<path fill="#C3D552" d="M241.6,220.3c-10.1,19.2-32.1,26.9-53.3,34.4c-12.8,4.5-24.9,8.8-34.7,15.4 c-11.1,7.5-17.4,17.1-19.3,29.4c-0.2,1.1,3.3,0.5,3.4-0.4c4.2-24.5,27.2-32.6,51.6-41.2c22.4-7.9,45.7-16.1,56-37.7 c0.2-0.4,0.2-0.8,0-0.9C244.8,218.8,242.5,218.6,241.6,220.3z"/>
			<path fill="#764493" d="M213,269c-13.6,3.2-30.2,9.4-35.5,20.8c-0.4,0.8-0.3,2.5,1.8,3.4c4.9-11.7,17.6-16.5,32.3-20.4 C212.5,272.6,213.8,270.5,213,269z"/>
			<path fill="#DD4F41" d="M227.7,253.3c-7.4,4.1-17,8-24.7,10.8c-21.4,7.9-35.2,13.2-42.1,34.8c0.9,1.2,3.5-0.1,3.7-0.8 c5.9-18.5,21.5-24.2,39.6-30.9c7.8-2.9,15.8-5.8,23.5-10C228,256.9,228.5,254.3,227.7,253.3z"/>
			<path fill="#58595B" d="M237.4,235.6c-11.3,12.1-27.9,18.7-42.8,24.2c-23.3,8.5-42,15.9-47.6,39.6c-0.2,0.8,3.2,1.6,3.5,0.4 c5-22.2,24.5-29.3,45.2-36.9c15.5-5.7,29.4-10.2,42.1-23.1c0.2-0.3,0.9-2.6,0.5-4C238.1,235.2,237.6,235.3,237.4,235.6z"/>
			<path fill="#DD4F41" d="M235.2,143.7c-25.4-11.4-49.5-17.5-73.7-17.5c-21.2,0-42.9,3.6-64.9,12c-2,0.6-2.5,3.3-1.5,3.9 c21.6-8.3,45.5-12.5,66.4-12.5c23.7,0,49.1,6.9,74.1,18.1c0.3,0.1,0.5,0,0.5-0.2c0-0.6-0.1-1.8-0.2-2.6 C235.8,144.1,235.6,143.9,235.2,143.7z"/>
			<path fill="#D92F8A" d="M79.1,143.6c-10.4,5.3-20.3,9.9-26.3,9.9c-1.1,0-2.1-0.1-3-0.3c-4.1-0.9-5.6-3.8-6.6-5.5 c-0.7-1.2-2.2,2.4-1.8,3.2c1.7,2.9,4.3,4.8,7.7,5.6c1.2,0.3,2.4,0.4,3.7,0.4c6.8,0,15.8-3.6,26.6-9.5 C80.1,146.9,80.5,144.1,79.1,143.6z"/>
			<path fill="#DD4F41" d="M191.3,97.5c-9.2-2.2-18.3-3.5-27.1-3.5c-12.7,0-24.9,2.7-37.5,7C92.1,113,67.3,144,52.5,144 c-2.9,0-5-1-6-2.7c-0.7-1-2.6,1.1-1.5,2.6c1.6,2.4,4.4,3.7,8.1,3.7c14.3,0,32.9-22.5,62.1-37.7c14.9-7.8,31-12.5,49.3-12.5 c7.9,0,17.9,1.4,27.5,3.6C192.8,101.2,193,97.9,191.3,97.5z"/>
			<path fill="#F0B257" d="M212.2,111.1c-11.8-5.6-27.2-8.6-40-8.6c-0.5,0-3.7,0-4.2,0c-15.6,0.2-30.3,3.2-41.5,8.6 c-0.8,0.4-1.2,1.4-0.8,2.2c0.3,0.6,0.9,0.9,1.5,0.9c0.2,0,0.5,0,0.7-0.2c11-5.3,26.3-8.3,41.9-8.3c15.1,0,29.6,2.9,42.3,8.9 C213.1,115.2,213.8,112.3,212.2,111.1z"/>
			<path fill="#764493" d="M165.9,87.1c-9.7-2-22.8-2.5-35.7,2c-1.7,0.6-0.4,3.6,1.2,3.1c13.3-4.2,24.5-3.5,34.7-1.8 C167.8,90.8,166.9,87.3,165.9,87.1z"/>
			<path fill="#53A8DC" d="M119.2,95.9c-0.2-0.6-0.9-1.1-1.5-1.1c-0.2,0-0.4,0-0.6,0.1c-14.6,5.8-26.1,13.9-36.7,21.9 c-1.4,1.1-0.7,4.7,0.5,3.8c10.8-8.2,22.6-16.7,37.5-22.6c0.4-0.2,0.7-0.5,0.9-0.9C119.3,96.8,119.3,96.3,119.2,95.9z"/>
			<path fill="#58595B" d="M70.9,124.2c-16.3,14.1-18.8,10.7-20.2,10.1c-1.3,0.3-1.8,1.8-1.6,3c2.6,2.1,9.3,2.2,22.1-9.2 C73.3,126.2,71.9,123.4,70.9,124.2z"/>
			<path fill="#C3D552" d="M123.8,87.1c-0.2-0.7-0.8-1.3-1.6-1.3c-0.1,0-0.3,0-0.4,0c-24.2,6-50.2,21.4-66.3,39.3 c-0.6,0.7-0.6,1.7,0.1,2.3c0.3,0.3,0.7,0.4,1.1,0.4c0.5,0,0.9-0.2,1.2-0.6c15.7-17.4,41.1-32.4,64.6-38.2 C123.5,88.8,124,87.9,123.8,87.1z"/>
			<path fill="#C3D552" d="M48.4,207.4c-0.2-0.8-0.4-1.3-1-1.3c-0.4,0-0.9,0.3-1.5,0.6c-3.6,2.2-7.8,4.9-11.4,8.9 c-0.5,0.6-0.5,1.1-0.3,1.5c0.2,0.4,0.9,1.8,1.1,2c0.2,0.2,0.5,0.3,0.7,0c2.9-3.6,8.3-7.2,11.8-9.3 C48.2,209.6,48.8,208.9,48.4,207.4z"/>
		</g>
	</g>
</g>
</svg>